<mxfile host="app.diagrams.net" modified="2022-12-26T02:45:34.502Z" agent="5.0 (Macintosh; Intel Mac OS X 10_15_6) AppleWebKit/537.36 (KHTML, like Gecko) Chrome/107.0.0.0 Safari/537.36" version="20.6.0" etag="R1huMYc_Jbceyr5rODfw" type="github">
  <diagram id="dS-H6RdvGtDqhANUqR_T" name="第 1 页">
    <mxGraphModel dx="818" dy="534" grid="1" gridSize="10" guides="1" tooltips="1" connect="1" arrows="1" fold="1" page="1" pageScale="1" pageWidth="827" pageHeight="1169" math="0" shadow="0">
      <root>
        <mxCell id="0" />
        <mxCell id="1" parent="0" />
        <mxCell id="Ys2CUjfUv_H-y-x5qjIL-1" value="BeanFactory" style="rounded=0;whiteSpace=wrap;html=1;" vertex="1" parent="1">
          <mxGeometry x="110" y="160" width="120" height="60" as="geometry" />
        </mxCell>
        <mxCell id="Ys2CUjfUv_H-y-x5qjIL-3" value="根据名称获取一个实例对象" style="text;html=1;strokeColor=none;fillColor=none;align=center;verticalAlign=middle;whiteSpace=wrap;rounded=0;" vertex="1" parent="1">
          <mxGeometry x="190" y="160" width="160" height="20" as="geometry" />
        </mxCell>
        <mxCell id="Ys2CUjfUv_H-y-x5qjIL-6" style="edgeStyle=orthogonalEdgeStyle;rounded=0;orthogonalLoop=1;jettySize=auto;html=1;exitX=1;exitY=0.5;exitDx=0;exitDy=0;entryX=0;entryY=0.5;entryDx=0;entryDy=0;" edge="1" parent="1" source="Ys2CUjfUv_H-y-x5qjIL-4" target="Ys2CUjfUv_H-y-x5qjIL-5">
          <mxGeometry relative="1" as="geometry" />
        </mxCell>
        <mxCell id="Ys2CUjfUv_H-y-x5qjIL-9" value="依赖" style="edgeLabel;html=1;align=center;verticalAlign=middle;resizable=0;points=[];" vertex="1" connectable="0" parent="Ys2CUjfUv_H-y-x5qjIL-6">
          <mxGeometry x="-0.1111" y="1" relative="1" as="geometry">
            <mxPoint y="1" as="offset" />
          </mxGeometry>
        </mxCell>
        <mxCell id="Ys2CUjfUv_H-y-x5qjIL-4" value="BeanDefinitionRegistry" style="rounded=0;whiteSpace=wrap;html=1;" vertex="1" parent="1">
          <mxGeometry x="110" y="310" width="150" height="60" as="geometry" />
        </mxCell>
        <mxCell id="Ys2CUjfUv_H-y-x5qjIL-5" value="BeanDefinition" style="rounded=0;whiteSpace=wrap;html=1;" vertex="1" parent="1">
          <mxGeometry x="350" y="310" width="120" height="60" as="geometry" />
        </mxCell>
        <mxCell id="Ys2CUjfUv_H-y-x5qjIL-8" value="注册beandefinition" style="text;html=1;strokeColor=none;fillColor=none;align=center;verticalAlign=middle;whiteSpace=wrap;rounded=0;" vertex="1" parent="1">
          <mxGeometry x="220" y="280" width="100" height="30" as="geometry" />
        </mxCell>
      </root>
    </mxGraphModel>
  </diagram>
</mxfile>
